<svg width="24" height="24" viewBox="0 0 24 24" fill="none" xmlns="http://www.w3.org/2000/svg">
<path d="M7.22154 18.9119L12.1953 10.8804L14.7353 14.8332L15.8337 12.1189L13.2629 7.82913C13.1411 7.64244 12.9872 7.4976 12.8012 7.39461C12.6153 7.29161 12.4133 7.24011 12.1953 7.24011C11.9773 7.24011 11.7721 7.29161 11.5797 7.39461C11.3937 7.4976 11.2463 7.64244 11.1372 7.82913L5.36597 17.1609L5.70731 18.9119H6.55907H7.22154Z" fill="#007AFF"/>
<path d="M5.53929 5H3L4.70351 14.0257L6.62219 10.9855L5.53929 5Z" fill="#007AFF"/>
<path d="M18.8533 19L19.111 18.0656L21.4986 9.19153H18.9317L16.2434 17.1285L17.0014 18.5195L17.2918 19H18.1435H18.8533Z" fill="#007AFF"/>
</svg>
