<svg id="Layer_1" data-name="Layer 1" xmlns="http://www.w3.org/2000/svg" xmlns:xlink="http://www.w3.org/1999/xlink" viewBox="0 0 31.11 17.69"><defs><style>.cls-1,.cls-2,.cls-3,.cls-4,.cls-5,.cls-6,.cls-7,.cls-8,.cls-9{fill-rule:evenodd;}.cls-1{fill:url(#linear-gradient);}.cls-2{fill:url(#linear-gradient-2);}.cls-3{fill:url(#linear-gradient-3);}.cls-4{fill:url(#linear-gradient-4);}.cls-5{fill:url(#linear-gradient-5);}.cls-6{fill:url(#linear-gradient-6);}.cls-7{fill:url(#linear-gradient-7);}.cls-8{fill:url(#linear-gradient-8);}.cls-9{fill:#0a0a0a;}</style><linearGradient id="linear-gradient" x1="14.05" y1="9.3" x2="27.53" y2="8.66" gradientUnits="userSpaceOnUse"><stop offset="0" stop-color="#0097ff"/><stop offset="0.59" stop-color="#008eff"/><stop offset="0.77" stop-color="#008cff"/><stop offset="0.86" stop-color="#0084ff"/><stop offset="0.93" stop-color="#07f"/><stop offset="0.99" stop-color="#0065ff"/><stop offset="1" stop-color="#005fff"/></linearGradient><linearGradient id="linear-gradient-2" x1="30.33" y1="16.95" x2="21.24" y2="21.11" gradientUnits="userSpaceOnUse"><stop offset="0" stop-color="#005fff"/><stop offset="0.51" stop-color="#008eff"/><stop offset="1" stop-color="#1277ef"/></linearGradient><linearGradient id="linear-gradient-3" x1="16.17" y1="11.73" x2="1.76" y2="16.93" gradientTransform="translate(-0.23 -2.61) rotate(0.13)" gradientUnits="userSpaceOnUse"><stop offset="0" stop-color="#0097ff"/><stop offset="0.51" stop-color="#008eff"/><stop offset="1" stop-color="#005fff"/></linearGradient><linearGradient id="linear-gradient-4" x1="33.49" y1="17.26" x2="13.16" y2="-5.13" gradientTransform="matrix(1, 0, 0, 1, 0, 0)" xlink:href="#linear-gradient-3"/><linearGradient id="linear-gradient-5" x1="30.44" y1="15.21" x2="23.08" y2="8.7" gradientTransform="matrix(1, 0, 0, 1, 0, 0)" xlink:href="#linear-gradient-3"/><linearGradient id="linear-gradient-6" x1="2.95" y1="11.68" x2="12.55" y2="14.13" gradientTransform="matrix(1, 0, 0, 1, 0, 0)" xlink:href="#linear-gradient-3"/><linearGradient id="linear-gradient-7" x1="18.61" y1="24.08" x2="12.36" y2="16.71" gradientTransform="matrix(1, 0, 0, 1, 0, 0)" xlink:href="#linear-gradient-3"/><linearGradient id="linear-gradient-8" x1="-6.22" y1="16.85" x2="35.81" y2="14.36" xlink:href="#linear-gradient-2"/></defs><polygon class="cls-1" points="31.11 0 25.68 0 20.8 8.96 15.23 1.78 6.55 13.11 9.04 17.69 15.34 9.7 21.48 17.69 31.11 0"/><path class="cls-2" d="M21.63,20.22a6.4,6.4,0,0,1-4.31-1.37l4.61,6,3.27-6A6.35,6.35,0,0,1,21.63,20.22Z" transform="translate(-0.45 -7.15)"/><path class="cls-3" d="M.45,8.06a13,13,0,0,0,5.74,2.18A13.42,13.42,0,0,0,15,8.14q-4.3,5.52-8.59,11.05Z" transform="translate(-0.45 -7.15)"/><path class="cls-4" d="M26.13,7.16h5.42l-5.42,10h0c1.38-5.68.94-7.62.94-7.62A8.55,8.55,0,0,0,26.13,7.16Z" transform="translate(-0.45 -7.15)"/><path class="cls-5" d="M31.55,7.16H26.12l-4.87,9h0a26.53,26.53,0,0,1,5.82-6.61A15.82,15.82,0,0,1,31.55,7.16Z" transform="translate(-0.45 -7.15)"/><path class="cls-6" d="M.45,8.06A8.23,8.23,0,0,0,4.74,11.9c3.4,1.22,7.59-.25,10.28-3.76q-4.3,5.52-8.59,11.05Z" transform="translate(-0.45 -7.15)"/><path class="cls-7" d="M9.48,24.85l6.31-8a6.74,6.74,0,0,1,2-1.7c.65-.27,1.7-.27,3.49,1l-4-5.21-9,11.7Z" transform="translate(-0.45 -7.15)"/><path class="cls-8" d="M8.25,22.61c2-2.43,3.54-4.45,4.61-5.88,1.69-2.26,2.34-3.24,3.53-3.45,2.17-.39,4.86,2.84,4.86,2.84h0L15.68,8.93Q11.33,14.6,7,20.26Z" transform="translate(-0.45 -7.15)"/><path class="cls-9" d="M22.47,13.87" transform="translate(-0.45 -7.15)"/></svg>