<svg width="775" height="127" viewBox="0 0 775 127" fill="none" xmlns="http://www.w3.org/2000/svg">
<path d="M774.741 96.4841C774.741 100.134 774.278 103.43 773.351 106.372C772.425 109.26 771.199 111.82 769.674 114.054C768.148 116.233 766.378 118.113 764.362 119.693C762.346 121.218 760.222 122.471 757.988 123.452C755.809 124.433 753.575 125.168 751.287 125.658C749.053 126.094 746.928 126.312 744.913 126.312H706.585C702.935 126.312 699.666 125.849 696.779 124.923C693.892 123.997 691.331 122.771 689.097 121.245C686.918 119.666 685.038 117.868 683.458 115.852C681.933 113.836 680.68 111.739 679.699 109.559C678.719 107.326 677.983 105.092 677.493 102.858C677.057 100.57 676.839 98.4454 676.839 96.4841V67.7184C676.839 62.2703 677.82 57.6667 679.781 53.9076C681.797 50.0939 684.276 47.0158 687.218 44.6731C690.214 42.276 693.456 40.5598 696.942 39.5247C700.429 38.4896 703.644 37.972 706.585 37.972H744.913V59.2194H706.749C703.916 59.2194 701.764 59.9549 700.293 61.4259C698.822 62.8424 698.087 64.9399 698.087 67.7184V96.3206C698.087 99.2081 698.795 101.387 700.211 102.858C701.682 104.329 703.807 105.065 706.585 105.065H744.913C747.8 105.065 749.952 104.329 751.368 102.858C752.785 101.387 753.493 99.2626 753.493 96.4841V0.62561H774.741V96.4841Z" fill="white"/>
<path d="M668.603 125.953H647.355V76.9207C647.355 74.1422 646.865 71.6634 645.884 69.4841C644.958 67.2504 643.678 65.3436 642.043 63.7637C640.409 62.1838 638.475 60.9852 636.241 60.168C634.062 59.2963 631.692 58.8604 629.132 58.8604H591.949V125.953H570.701V48.155C570.701 46.684 570.974 45.322 571.518 44.069C572.063 42.7614 572.826 41.6446 573.807 40.7184C574.787 39.7378 575.931 38.9751 577.239 38.4302C578.546 37.8854 579.936 37.613 581.407 37.613H629.295C631.965 37.613 634.77 37.9127 637.712 38.512C640.709 39.1113 643.651 40.0919 646.538 41.4539C649.48 42.7614 652.259 44.4503 654.874 46.5206C657.543 48.5364 659.886 51.0152 661.902 53.9572C663.972 56.8447 665.606 60.1952 666.805 64.0089C668.003 67.8225 668.603 72.1264 668.603 76.9207V125.953Z" fill="white"/>
<path d="M563.002 125.953H541.755V37.613H563.002V125.953Z" fill="white"/>
<path d="M485.531 125.953H464.283V67.3594C464.283 64.5809 463.548 62.4834 462.077 61.0669C460.606 59.5959 458.427 58.8604 455.539 58.8604H427.918V125.953H406.67V48.155C406.67 46.684 406.943 45.322 407.487 44.069C408.032 42.7614 408.795 41.6446 409.776 40.7184C410.756 39.7378 411.9 38.9751 413.208 38.4302C414.515 37.8854 415.905 37.613 417.376 37.613H455.703C458.645 37.613 461.804 38.1306 465.182 39.1657C468.56 40.2009 472.719 43.4666 474.825 47.7371V37.613H503.591C505.607 37.613 507.732 37.8582 509.965 38.3485C512.199 38.7844 514.405 39.4926 516.585 40.4733C518.818 41.4539 520.943 42.7342 522.959 44.3141C524.975 45.8396 526.745 47.7192 528.271 49.9529C529.796 52.1321 531.022 54.6654 531.948 57.5529C532.874 60.4404 533.337 63.7092 533.337 67.3594V125.953H512.09V67.3594C512.09 64.5809 511.382 62.4834 509.965 61.0669C508.603 59.5959 506.478 58.8604 503.591 58.8604H484.468C485.177 61.4755 485.531 64.3085 485.531 67.3594V125.953Z" fill="white"/>
<path d="M398.176 66.8691C398.176 69.811 397.658 72.9981 396.623 76.4304C395.588 79.8082 393.899 82.9681 391.556 85.91C389.268 88.7975 386.244 91.2219 382.485 93.1832C378.78 95.1445 374.259 96.1251 368.92 96.1251H330.592V75.9401H368.92C371.807 75.9401 374.041 75.0684 375.621 73.325C377.201 71.5272 377.991 69.3207 377.991 66.7056C377.991 63.9271 377.092 61.7479 375.294 60.168C373.55 58.588 371.426 57.7981 368.92 57.7981H330.592C327.705 57.7981 325.471 58.697 323.891 60.4949C322.311 62.2382 321.521 64.4175 321.521 67.0325V96.6972C321.521 99.5302 322.393 101.737 324.137 103.317C325.934 104.896 328.141 105.686 330.756 105.686H368.92V125.953H330.592C327.651 125.953 324.463 125.436 321.031 124.401C317.653 123.365 314.493 121.704 311.552 119.416C308.664 117.073 306.24 114.049 304.278 110.345C302.317 106.585 301.336 102.036 301.336 96.6972V66.8691C301.336 63.9271 301.854 60.7673 302.889 57.3895C303.924 53.9572 305.586 50.7973 307.874 47.9099C310.217 44.9679 313.24 42.5163 316.945 40.555C320.704 38.5937 325.253 37.613 330.592 37.613H368.92C371.861 37.613 375.021 38.1306 378.399 39.1657C381.831 40.2009 384.991 41.8898 387.879 44.2324C390.821 46.5206 393.272 49.5443 395.234 53.3034C397.195 57.0081 398.176 61.53 398.176 66.8691Z" fill="white"/>
<path d="M293.27 96.1251C293.27 99.7753 292.806 103.071 291.88 106.013C290.954 108.901 289.728 111.461 288.203 113.695C286.677 115.874 284.907 117.754 282.891 119.334C280.875 120.859 278.75 122.112 276.517 123.093C274.338 124.074 272.104 124.809 269.816 125.299C267.582 125.735 265.457 125.953 263.441 125.953H205.91V104.706H263.278C266.165 104.706 268.345 103.97 269.816 102.499C271.287 101.028 272.022 98.9036 272.022 96.1251C271.75 90.4591 268.89 87.6262 263.441 87.6262H230.508C225.823 87.6262 221.846 86.8089 218.577 85.1745C215.308 83.5401 212.638 81.4971 210.568 79.0455C208.552 76.5938 207.081 73.9515 206.155 71.1186C205.284 68.2856 204.848 65.6433 204.848 63.1916C204.848 58.4518 205.692 54.4748 207.381 51.2604C209.07 47.9916 211.195 45.3493 213.755 43.3335C216.316 41.3177 219.094 39.874 222.091 39.0023C225.087 38.0761 227.893 37.613 230.508 37.613H282.728V58.8604H230.671C229.582 58.8604 228.71 58.9966 228.056 59.269C227.457 59.487 226.994 59.8139 226.667 60.2497C226.395 60.6311 226.231 61.0669 226.177 61.5572C226.122 61.9931 226.095 62.4289 226.095 62.8648C226.15 63.7364 226.313 64.4175 226.585 64.9078C226.858 65.3981 227.185 65.7522 227.566 65.9701C228.002 66.1881 228.465 66.3243 228.955 66.3788C229.5 66.3788 230.018 66.3788 230.508 66.3788H263.441C268.89 66.3788 273.52 67.3594 277.334 69.3207C281.148 71.282 284.226 73.7609 286.568 76.7573C288.911 79.6992 290.6 82.9136 291.635 86.4003C292.725 89.8871 293.27 93.1287 293.27 96.1251Z" fill="white"/>
<path d="M197.148 125.953H175.901V37.613H197.148V125.953Z" fill="white"/>
<path d="M175.901 13.4907L196.807 18.3152V25.5518H175.901V13.4907Z" fill="#007AFF"/>
<path d="M167.86 37.6243L145.529 117.636L143.206 126.061H136.806H129.126L126.508 121.728L119.838 109.995L128.531 83.073L116.326 64.8125L106.422 89.2862L83.521 53.6461L38.6759 126.061H32.7028H25.0231L21.9454 110.273L38.4245 83.073L35.8482 68.8329L33.2718 54.5929L15.9722 82.0049L0.612793 0.62561H23.5079L38.4245 83.073L73.9814 26.1347C74.9642 24.4515 76.294 23.1455 77.9707 22.2169C79.7052 21.2882 81.5553 20.8239 83.521 20.8239C85.4868 20.8239 87.308 21.2882 88.9846 22.2169C90.6613 23.1455 92.0489 24.4515 93.1474 26.1347L116.326 64.8125L128.531 83.073L144.716 37.6243H167.86Z" fill="white"/>
<path d="M541.755 13.4907L562.661 18.3152V25.5518H541.755V13.4907Z" fill="#007AFF"/>
</svg>
