<svg width="94" height="34" viewBox="0 0 94 34" fill="none" xmlns="http://www.w3.org/2000/svg">
<path d="M774.741 95.8585C774.741 99.5087 774.278 102.805 773.351 105.747C772.425 108.634 771.199 111.195 769.674 113.428C768.148 115.608 766.378 117.487 764.362 119.067C762.346 120.593 760.222 121.846 757.988 122.826C755.809 123.807 753.575 124.542 751.287 125.033C749.053 125.469 746.928 125.687 744.913 125.687H706.585C702.935 125.687 699.666 125.223 696.779 124.297C693.892 123.371 691.331 122.145 689.097 120.62C686.918 119.04 685.038 117.242 683.458 115.226C681.933 113.211 680.68 111.113 679.699 108.934C678.719 106.7 677.983 104.466 677.493 102.233C677.057 99.9445 676.839 97.8198 676.839 95.8585V67.0928C676.839 61.6447 677.82 57.0411 679.781 53.2819C681.797 49.4683 684.276 46.3902 687.218 44.0475C690.214 41.6504 693.456 39.9342 696.942 38.8991C700.429 37.864 703.644 37.3464 706.585 37.3464H744.913V58.5938H706.749C703.916 58.5938 701.764 59.3293 700.293 60.8003C698.822 62.2167 698.087 64.3142 698.087 67.0928V95.695C698.087 98.5825 698.795 100.762 700.211 102.233C701.682 103.704 703.807 104.439 706.585 104.439H744.913C747.8 104.439 749.952 103.704 751.368 102.233C752.785 100.762 753.493 98.637 753.493 95.8585V0H774.741V95.8585Z" fill="black"/>
<path d="M668.603 125.328H647.355V76.2951C647.355 73.5166 646.865 71.0378 645.884 68.8585C644.958 66.6248 643.678 64.718 642.043 63.1381C640.409 61.5581 638.475 60.3596 636.241 59.5424C634.062 58.6707 631.692 58.2348 629.132 58.2348H591.949V125.328H570.701V47.5294C570.701 46.0584 570.974 44.6964 571.518 43.4434C572.063 42.1358 572.826 41.019 573.807 40.0928C574.787 39.1122 575.931 38.3494 577.239 37.8046C578.546 37.2598 579.936 36.9874 581.407 36.9874H629.295C631.965 36.9874 634.77 37.2871 637.712 37.8864C640.709 38.4856 643.651 39.4663 646.538 40.8283C649.48 42.1358 652.259 43.8247 654.874 45.895C657.543 47.9108 659.886 50.3896 661.902 53.3316C663.972 56.2191 665.606 59.5696 666.805 63.3832C668.003 67.1969 668.603 71.5008 668.603 76.2951V125.328Z" fill="black"/>
<path d="M563.002 125.328H541.755V36.9874H563.002V125.328Z" fill="black"/>
<path d="M485.531 125.328H464.283V66.7338C464.283 63.9553 463.548 61.8578 462.077 60.4413C460.606 58.9703 458.427 58.2348 455.539 58.2348H427.918V125.328H406.67V47.5294C406.67 46.0584 406.943 44.6964 407.487 43.4434C408.032 42.1358 408.795 41.019 409.776 40.0928C410.756 39.1122 411.9 38.3494 413.208 37.8046C414.515 37.2598 415.905 36.9874 417.376 36.9874H455.703C458.645 36.9874 461.804 37.505 465.182 38.5401C468.56 39.5753 472.719 42.841 474.825 47.1115V36.9874H503.591C505.607 36.9874 507.732 37.2326 509.965 37.7229C512.199 38.1588 514.405 38.867 516.585 39.8477C518.818 40.8283 520.943 42.1086 522.959 43.6885C524.975 45.214 526.745 47.0936 528.271 49.3273C529.796 51.5065 531.022 54.0398 531.948 56.9273C532.874 59.8148 533.337 63.0836 533.337 66.7338V125.328H512.09V66.7338C512.09 63.9553 511.382 61.8578 509.965 60.4413C508.603 58.9703 506.478 58.2348 503.591 58.2348H484.468C485.177 60.8499 485.531 63.6829 485.531 66.7338V125.328Z" fill="black"/>
<path d="M398.176 66.2435C398.176 69.1854 397.658 72.3725 396.623 75.8048C395.588 79.1826 393.899 82.3425 391.556 85.2844C389.268 88.1719 386.244 90.5963 382.485 92.5576C378.78 94.5189 374.259 95.4995 368.92 95.4995H330.592V75.3145H368.92C371.807 75.3145 374.041 74.4428 375.621 72.6994C377.201 70.9016 377.991 68.6951 377.991 66.08C377.991 63.3015 377.092 61.1223 375.294 59.5424C373.55 57.9624 371.426 57.1725 368.92 57.1725H330.592C327.705 57.1725 325.471 58.0714 323.891 59.8692C322.311 61.6126 321.521 63.7918 321.521 66.4069V96.0716C321.521 98.9045 322.393 101.111 324.137 102.691C325.934 104.271 328.141 105.061 330.756 105.061H368.92V125.328H330.592C327.651 125.328 324.463 124.81 321.031 123.775C317.653 122.74 314.493 121.078 311.552 118.79C308.664 116.447 306.24 113.424 304.278 109.719C302.317 105.96 301.336 101.411 301.336 96.0716V66.2435C301.336 63.3015 301.854 60.1416 302.889 56.7639C303.924 53.3316 305.586 50.1717 307.874 47.2842C310.217 44.3423 313.24 41.8907 316.945 39.9294C320.704 37.9681 325.253 36.9874 330.592 36.9874H368.92C371.861 36.9874 375.021 37.505 378.399 38.5401C381.831 39.5753 384.991 41.2641 387.879 43.6068C390.821 45.895 393.272 48.9187 395.234 52.6778C397.195 56.3825 398.176 60.9044 398.176 66.2435Z" fill="black"/>
<path d="M293.27 95.4995C293.27 99.1497 292.806 102.446 291.88 105.388C290.954 108.275 289.728 110.836 288.203 113.069C286.677 115.249 284.907 117.128 282.891 118.708C280.875 120.234 278.75 121.487 276.517 122.467C274.338 123.448 272.104 124.184 269.816 124.674C267.582 125.11 265.457 125.328 263.441 125.328H205.91V104.08H263.278C266.165 104.08 268.345 103.345 269.816 101.874C271.287 100.403 272.022 98.278 272.022 95.4995C271.75 89.8335 268.89 87.0005 263.441 87.0005H230.508C225.823 87.0005 221.846 86.1833 218.577 84.5489C215.308 82.9145 212.638 80.8715 210.568 78.4199C208.552 75.9682 207.081 73.3259 206.155 70.4929C205.284 67.66 204.848 65.0177 204.848 62.566C204.848 57.8262 205.692 53.8491 207.381 50.6348C209.07 47.366 211.195 44.7237 213.755 42.7079C216.316 40.6921 219.094 39.2484 222.091 38.3767C225.087 37.4505 227.893 36.9874 230.508 36.9874H282.728V58.2348H230.671C229.582 58.2348 228.71 58.371 228.056 58.6434C227.457 58.8614 226.994 59.1882 226.667 59.6241C226.395 60.0054 226.231 60.4413 226.177 60.9316C226.122 61.3675 226.095 61.8033 226.095 62.2391C226.15 63.1108 226.313 63.7918 226.585 64.2822C226.858 64.7725 227.185 65.1266 227.566 65.3445C228.002 65.5625 228.465 65.6987 228.955 65.7531C229.5 65.7531 230.018 65.7531 230.508 65.7531H263.441C268.89 65.7531 273.52 66.7338 277.334 68.6951C281.148 70.6564 284.226 73.1353 286.568 76.1317C288.911 79.0736 290.6 82.288 291.635 85.7747C292.725 89.2615 293.27 92.5031 293.27 95.4995Z" fill="black"/>
<path d="M197.148 125.328H175.901V36.9874H197.148V125.328Z" fill="black"/>
<path d="M175.901 12.8651L196.807 17.6896V24.9262H175.901V12.8651Z" fill="#007AFF"/>
<path d="M167.86 36.9987L145.529 117.011L143.206 125.436H136.806H129.126L126.508 121.103L119.838 109.37L128.531 82.4473L116.326 64.1869L106.422 88.6606L83.521 53.0205L38.6759 125.436H32.7028H25.0231L21.9454 109.648L38.4245 82.4473L35.8482 68.2073L33.2718 53.9673L15.9722 81.3793L0.612793 0H23.5079L38.4245 82.4473L73.9814 25.5091C74.9642 23.8259 76.294 22.5199 77.9707 21.5913C79.7052 20.6626 81.5553 20.1983 83.521 20.1983C85.4868 20.1983 87.308 20.6626 88.9846 21.5913C90.6613 22.5199 92.0489 23.8259 93.1474 25.5091L116.326 64.1869L128.531 82.4473L144.716 36.9987H167.86Z" fill="black"/>
<path d="M541.755 12.8651L562.661 17.6896V24.9262H541.755V12.8651Z" fill="#007AFF"/>
</svg>
